<mxfile host="Electron" modified="2023-06-12T10:18:03.086Z" agent="Mozilla/5.0 (Macintosh; Intel Mac OS X 10_15_7) AppleWebKit/537.36 (KHTML, like Gecko) draw.io/21.3.7 Chrome/112.0.5615.204 Electron/24.5.0 Safari/537.36" etag="OYPg30ri1jBd_9X2XI2P" version="21.3.7" type="device" pages="3">
  <diagram name="Components" id="-QDLl5YIO89CXEF4-2ky">
    <mxGraphModel dx="2065" dy="769" grid="1" gridSize="10" guides="1" tooltips="1" connect="1" arrows="1" fold="1" page="1" pageScale="1" pageWidth="827" pageHeight="1169" math="0" shadow="0">
      <root>
        <mxCell id="opmuxgLEek1yOhuW0azc-0" />
        <mxCell id="opmuxgLEek1yOhuW0azc-1" parent="opmuxgLEek1yOhuW0azc-0" />
        <mxCell id="u8uzgwCI_1PCxtKQNaM_-0" value="Managed by NEXI" style="html=1;dashed=1;fontStyle=0;verticalAlign=top;dashPattern=1 4;fillColor=#f5f5f5;strokeColor=none;fontColor=#333333;" parent="opmuxgLEek1yOhuW0azc-1" vertex="1">
          <mxGeometry x="840" y="560" width="160" height="140" as="geometry" />
        </mxCell>
        <mxCell id="57wzgMmFu3WZAl-rP_Zv-0" value="Managed by SIA" style="html=1;dashed=1;fontStyle=0;verticalAlign=top;dashPattern=1 4;fillColor=#f5f5f5;strokeColor=none;fontColor=#333333;" parent="opmuxgLEek1yOhuW0azc-1" vertex="1">
          <mxGeometry x="640" y="560" width="160" height="140" as="geometry" />
        </mxCell>
        <mxCell id="opmuxgLEek1yOhuW0azc-2" value="Managed by PagoPA" style="html=1;fontStyle=0;verticalAlign=top;fillColor=#b0e3e6;strokeColor=none;strokeWidth=3;" parent="opmuxgLEek1yOhuW0azc-1" vertex="1">
          <mxGeometry x="220" y="40" width="380" height="1040" as="geometry" />
        </mxCell>
        <mxCell id="Ogd_OGcNMKq0k89fKwHd-0" value="&lt;span style=&quot;&quot;&gt;&lt;span&gt;CDE/PCI Environment&lt;/span&gt;&lt;/span&gt;" style="html=1;fontStyle=0;verticalAlign=top;fillColor=#f8cecc;strokeColor=none;strokeWidth=3;" parent="opmuxgLEek1yOhuW0azc-1" vertex="1">
          <mxGeometry x="420" y="80" width="160" height="260" as="geometry" />
        </mxCell>
        <mxCell id="opmuxgLEek1yOhuW0azc-5" value="Managed by Poste Italiane" style="html=1;dashed=1;fontStyle=0;verticalAlign=top;dashPattern=1 4;fillColor=#f5f5f5;strokeColor=none;fontColor=#333333;" parent="opmuxgLEek1yOhuW0azc-1" vertex="1">
          <mxGeometry x="840" y="80" width="160" height="140" as="geometry" />
        </mxCell>
        <mxCell id="opmuxgLEek1yOhuW0azc-6" value="Managed by Bancomat" style="html=1;dashed=1;fontStyle=0;verticalAlign=top;dashPattern=1 4;fillColor=#f5f5f5;strokeColor=none;fontColor=#333333;" parent="opmuxgLEek1yOhuW0azc-1" vertex="1">
          <mxGeometry x="640" y="80" width="160" height="140" as="geometry" />
        </mxCell>
        <mxCell id="opmuxgLEek1yOhuW0azc-7" value="&lt;span style=&quot;font-weight: normal;&quot;&gt;&lt;span&gt;Multichannel Integration Layer&lt;/span&gt;&lt;/span&gt;" style="html=1;fontStyle=1;verticalAlign=top;fillColor=#d5e8d4;strokeColor=none;strokeWidth=3;" parent="opmuxgLEek1yOhuW0azc-1" vertex="1">
          <mxGeometry x="240" y="80" width="160" height="980" as="geometry" />
        </mxCell>
        <mxCell id="opmuxgLEek1yOhuW0azc-8" value="«Service»&lt;br&gt;&lt;b&gt;Session&lt;/b&gt;" style="html=1;dropTarget=0;fillColor=#fff2cc;strokeColor=#d6b656;" parent="opmuxgLEek1yOhuW0azc-1" vertex="1">
          <mxGeometry x="260" y="360" width="120" height="80" as="geometry" />
        </mxCell>
        <mxCell id="opmuxgLEek1yOhuW0azc-9" value="" style="shape=module;jettyWidth=8;jettyHeight=4;" parent="opmuxgLEek1yOhuW0azc-8" vertex="1">
          <mxGeometry x="1" width="20" height="20" relative="1" as="geometry">
            <mxPoint x="-27" y="7" as="offset" />
          </mxGeometry>
        </mxCell>
        <mxCell id="opmuxgLEek1yOhuW0azc-10" value="«Service»&lt;br&gt;&lt;b&gt;Payment Notice&lt;/b&gt;" style="html=1;dropTarget=0;fillColor=#fff2cc;strokeColor=#d6b656;" parent="opmuxgLEek1yOhuW0azc-1" vertex="1">
          <mxGeometry x="260" y="600" width="120" height="80" as="geometry" />
        </mxCell>
        <mxCell id="opmuxgLEek1yOhuW0azc-11" value="" style="shape=module;jettyWidth=8;jettyHeight=4;" parent="opmuxgLEek1yOhuW0azc-10" vertex="1">
          <mxGeometry x="1" width="20" height="20" relative="1" as="geometry">
            <mxPoint x="-27" y="7" as="offset" />
          </mxGeometry>
        </mxCell>
        <mxCell id="opmuxgLEek1yOhuW0azc-12" value="«Service»&lt;br&gt;&lt;b&gt;Wallet&lt;/b&gt;" style="html=1;dropTarget=0;fillColor=#fff2cc;strokeColor=#d6b656;" parent="opmuxgLEek1yOhuW0azc-1" vertex="1">
          <mxGeometry x="260" y="240" width="120" height="80" as="geometry" />
        </mxCell>
        <mxCell id="opmuxgLEek1yOhuW0azc-13" value="" style="shape=module;jettyWidth=8;jettyHeight=4;" parent="opmuxgLEek1yOhuW0azc-12" vertex="1">
          <mxGeometry x="1" width="20" height="20" relative="1" as="geometry">
            <mxPoint x="-27" y="7" as="offset" />
          </mxGeometry>
        </mxCell>
        <mxCell id="opmuxgLEek1yOhuW0azc-14" value="«Service»&lt;br&gt;&lt;b&gt;T&amp;amp;C&lt;/b&gt;" style="html=1;dropTarget=0;fillColor=#fff2cc;strokeColor=#d6b656;" parent="opmuxgLEek1yOhuW0azc-1" vertex="1">
          <mxGeometry x="260" y="480" width="120" height="80" as="geometry" />
        </mxCell>
        <mxCell id="opmuxgLEek1yOhuW0azc-15" value="" style="shape=module;jettyWidth=8;jettyHeight=4;" parent="opmuxgLEek1yOhuW0azc-14" vertex="1">
          <mxGeometry x="1" width="20" height="20" relative="1" as="geometry">
            <mxPoint x="-27" y="7" as="offset" />
          </mxGeometry>
        </mxCell>
        <mxCell id="opmuxgLEek1yOhuW0azc-16" value="" style="endArrow=none;html=1;rounded=0;endFill=0;startArrow=block;startFill=1;elbow=vertical;strokeWidth=2;dashed=1;" parent="opmuxgLEek1yOhuW0azc-1" source="opmuxgLEek1yOhuW0azc-8" target="opmuxgLEek1yOhuW0azc-12" edge="1">
          <mxGeometry width="50" height="50" relative="1" as="geometry">
            <mxPoint x="260" y="700" as="sourcePoint" />
            <mxPoint x="310" y="650" as="targetPoint" />
          </mxGeometry>
        </mxCell>
        <mxCell id="opmuxgLEek1yOhuW0azc-18" value="" style="endArrow=block;html=1;rounded=0;endFill=1;startArrow=none;startFill=0;strokeWidth=2;dashed=1;entryX=0.25;entryY=1;entryDx=0;entryDy=0;exitX=0.25;exitY=0;exitDx=0;exitDy=0;edgeStyle=orthogonalEdgeStyle;" parent="opmuxgLEek1yOhuW0azc-1" source="opmuxgLEek1yOhuW0azc-14" target="opmuxgLEek1yOhuW0azc-8" edge="1">
          <mxGeometry width="50" height="50" relative="1" as="geometry">
            <mxPoint x="250" y="370" as="sourcePoint" />
            <mxPoint x="350" y="360" as="targetPoint" />
          </mxGeometry>
        </mxCell>
        <mxCell id="opmuxgLEek1yOhuW0azc-19" value="&lt;b&gt;Client&lt;/b&gt;" style="html=1;dropTarget=0;fillColor=#e1d5e7;strokeColor=#9673a6;" parent="opmuxgLEek1yOhuW0azc-1" vertex="1">
          <mxGeometry x="40" y="120" width="120" height="80" as="geometry" />
        </mxCell>
        <mxCell id="opmuxgLEek1yOhuW0azc-20" value="" style="shape=module;jettyWidth=8;jettyHeight=4;" parent="opmuxgLEek1yOhuW0azc-19" vertex="1">
          <mxGeometry x="1" width="20" height="20" relative="1" as="geometry">
            <mxPoint x="-27" y="7" as="offset" />
          </mxGeometry>
        </mxCell>
        <mxCell id="opmuxgLEek1yOhuW0azc-21" value="" style="endArrow=block;html=1;rounded=0;endFill=1;strokeWidth=2;dashed=1;entryX=0;entryY=0.5;entryDx=0;entryDy=0;exitX=0.75;exitY=1;exitDx=0;exitDy=0;edgeStyle=orthogonalEdgeStyle;fillColor=#e51400;strokeColor=#FF0000;" parent="opmuxgLEek1yOhuW0azc-1" source="opmuxgLEek1yOhuW0azc-19" target="opmuxgLEek1yOhuW0azc-14" edge="1">
          <mxGeometry width="50" height="50" relative="1" as="geometry">
            <mxPoint x="-150" y="370" as="sourcePoint" />
            <mxPoint x="39.99999999999977" y="360" as="targetPoint" />
          </mxGeometry>
        </mxCell>
        <mxCell id="opmuxgLEek1yOhuW0azc-22" value="" style="endArrow=block;html=1;rounded=0;endFill=1;strokeWidth=2;dashed=1;exitX=0.5;exitY=1;exitDx=0;exitDy=0;entryX=0;entryY=0.5;entryDx=0;entryDy=0;edgeStyle=orthogonalEdgeStyle;fillColor=#e51400;strokeColor=#FF0000;" parent="opmuxgLEek1yOhuW0azc-1" source="opmuxgLEek1yOhuW0azc-19" target="opmuxgLEek1yOhuW0azc-10" edge="1">
          <mxGeometry width="50" height="50" relative="1" as="geometry">
            <mxPoint x="-10" y="370" as="sourcePoint" />
            <mxPoint x="110" y="370" as="targetPoint" />
            <Array as="points">
              <mxPoint x="100" y="640" />
            </Array>
          </mxGeometry>
        </mxCell>
        <mxCell id="opmuxgLEek1yOhuW0azc-23" value="" style="endArrow=block;html=1;rounded=0;endFill=1;entryX=0;entryY=0.5;entryDx=0;entryDy=0;strokeWidth=2;dashed=1;exitX=1;exitY=0.5;exitDx=0;exitDy=0;edgeStyle=orthogonalEdgeStyle;fillColor=#e51400;strokeColor=#FF0000;" parent="opmuxgLEek1yOhuW0azc-1" source="opmuxgLEek1yOhuW0azc-19" target="opmuxgLEek1yOhuW0azc-12" edge="1">
          <mxGeometry width="50" height="50" relative="1" as="geometry">
            <mxPoint y="380" as="sourcePoint" />
            <mxPoint x="120" y="380" as="targetPoint" />
            <Array as="points">
              <mxPoint x="200" y="160" />
              <mxPoint x="200" y="280" />
            </Array>
          </mxGeometry>
        </mxCell>
        <mxCell id="opmuxgLEek1yOhuW0azc-24" value="" style="endArrow=block;html=1;rounded=0;endFill=1;strokeWidth=2;dashed=1;entryX=0;entryY=0.5;entryDx=0;entryDy=0;exitX=1;exitY=0.75;exitDx=0;exitDy=0;edgeStyle=orthogonalEdgeStyle;fillColor=#e51400;strokeColor=#FF0000;" parent="opmuxgLEek1yOhuW0azc-1" source="opmuxgLEek1yOhuW0azc-19" target="opmuxgLEek1yOhuW0azc-8" edge="1">
          <mxGeometry width="50" height="50" relative="1" as="geometry">
            <mxPoint x="-40" y="440" as="sourcePoint" />
            <mxPoint x="360" y="400" as="targetPoint" />
            <Array as="points">
              <mxPoint x="180" y="180" />
              <mxPoint x="180" y="400" />
            </Array>
          </mxGeometry>
        </mxCell>
        <mxCell id="opmuxgLEek1yOhuW0azc-25" value="" style="endArrow=block;html=1;rounded=0;endFill=1;strokeWidth=2;dashed=1;exitX=0;exitY=0.5;exitDx=0;exitDy=0;" parent="opmuxgLEek1yOhuW0azc-1" source="opmuxgLEek1yOhuW0azc-45" target="opmuxgLEek1yOhuW0azc-8" edge="1">
          <mxGeometry width="50" height="50" relative="1" as="geometry">
            <mxPoint x="-69.99999999999977" y="370" as="sourcePoint" />
            <mxPoint x="440" y="360" as="targetPoint" />
          </mxGeometry>
        </mxCell>
        <mxCell id="opmuxgLEek1yOhuW0azc-26" value="&lt;b&gt;PAN to Tax&lt;br&gt;Code API&lt;/b&gt;" style="html=1;dropTarget=0;fillColor=#647687;fontColor=#ffffff;strokeColor=#314354;" parent="opmuxgLEek1yOhuW0azc-1" vertex="1">
          <mxGeometry x="660" y="120" width="120" height="80" as="geometry" />
        </mxCell>
        <mxCell id="opmuxgLEek1yOhuW0azc-27" value="" style="shape=module;jettyWidth=8;jettyHeight=4;" parent="opmuxgLEek1yOhuW0azc-26" vertex="1">
          <mxGeometry x="1" width="20" height="20" relative="1" as="geometry">
            <mxPoint x="-27" y="7" as="offset" />
          </mxGeometry>
        </mxCell>
        <mxCell id="opmuxgLEek1yOhuW0azc-28" value="&lt;b&gt;PAN to&amp;nbsp;Tax&lt;br&gt;Code API&lt;/b&gt;" style="html=1;dropTarget=0;fillColor=#647687;fontColor=#ffffff;strokeColor=#314354;" parent="opmuxgLEek1yOhuW0azc-1" vertex="1">
          <mxGeometry x="860" y="120" width="120" height="80" as="geometry" />
        </mxCell>
        <mxCell id="opmuxgLEek1yOhuW0azc-29" value="" style="shape=module;jettyWidth=8;jettyHeight=4;" parent="opmuxgLEek1yOhuW0azc-28" vertex="1">
          <mxGeometry x="1" width="20" height="20" relative="1" as="geometry">
            <mxPoint x="-27" y="7" as="offset" />
          </mxGeometry>
        </mxCell>
        <mxCell id="opmuxgLEek1yOhuW0azc-30" value="&lt;b&gt;Nodo&lt;/b&gt;" style="html=1;dropTarget=0;fillColor=#ffe6cc;strokeColor=#d79b00;" parent="opmuxgLEek1yOhuW0azc-1" vertex="1">
          <mxGeometry x="440" y="600" width="120" height="80" as="geometry" />
        </mxCell>
        <mxCell id="opmuxgLEek1yOhuW0azc-31" value="" style="shape=module;jettyWidth=8;jettyHeight=4;" parent="opmuxgLEek1yOhuW0azc-30" vertex="1">
          <mxGeometry x="1" width="20" height="20" relative="1" as="geometry">
            <mxPoint x="-27" y="7" as="offset" />
          </mxGeometry>
        </mxCell>
        <mxCell id="opmuxgLEek1yOhuW0azc-33" value="" style="rounded=0;whiteSpace=wrap;html=1;fillColor=#e1d5e7;strokeColor=#9673a6;" parent="opmuxgLEek1yOhuW0azc-1" vertex="1">
          <mxGeometry x="640" y="720" width="20" height="20" as="geometry" />
        </mxCell>
        <mxCell id="opmuxgLEek1yOhuW0azc-34" value="" style="rounded=0;whiteSpace=wrap;html=1;fillColor=#fff2cc;strokeColor=#d6b656;" parent="opmuxgLEek1yOhuW0azc-1" vertex="1">
          <mxGeometry x="640" y="780" width="20" height="20" as="geometry" />
        </mxCell>
        <mxCell id="opmuxgLEek1yOhuW0azc-35" value="" style="rounded=0;whiteSpace=wrap;html=1;fillColor=#ffe6cc;strokeColor=#d79b00;" parent="opmuxgLEek1yOhuW0azc-1" vertex="1">
          <mxGeometry x="640" y="870" width="20" height="20" as="geometry" />
        </mxCell>
        <mxCell id="opmuxgLEek1yOhuW0azc-36" value="" style="rounded=0;whiteSpace=wrap;html=1;" parent="opmuxgLEek1yOhuW0azc-1" vertex="1">
          <mxGeometry x="640" y="750" width="20" height="20" as="geometry" />
        </mxCell>
        <mxCell id="opmuxgLEek1yOhuW0azc-38" value="" style="rounded=0;whiteSpace=wrap;html=1;fillColor=#647687;fontColor=#ffffff;strokeColor=#314354;" parent="opmuxgLEek1yOhuW0azc-1" vertex="1">
          <mxGeometry x="640" y="840" width="20" height="20" as="geometry" />
        </mxCell>
        <mxCell id="opmuxgLEek1yOhuW0azc-39" value="Generico client (ad es.: ATM Gateway)" style="rounded=0;whiteSpace=wrap;html=1;align=left;strokeColor=none;fillColor=none;" parent="opmuxgLEek1yOhuW0azc-1" vertex="1">
          <mxGeometry x="670" y="720" width="240" height="20" as="geometry" />
        </mxCell>
        <mxCell id="opmuxgLEek1yOhuW0azc-40" value="Sviluppata da PagoPA per Fase #1" style="rounded=0;whiteSpace=wrap;html=1;align=left;strokeColor=none;fillColor=none;" parent="opmuxgLEek1yOhuW0azc-1" vertex="1">
          <mxGeometry x="670" y="780" width="240" height="20" as="geometry" />
        </mxCell>
        <mxCell id="opmuxgLEek1yOhuW0azc-41" value="Componente impattata sotto il controllo di PagoPA" style="rounded=0;whiteSpace=wrap;html=1;align=left;strokeColor=none;fillColor=none;" parent="opmuxgLEek1yOhuW0azc-1" vertex="1">
          <mxGeometry x="670" y="870" width="240" height="20" as="geometry" />
        </mxCell>
        <mxCell id="opmuxgLEek1yOhuW0azc-42" value="Componente usata ma non impattata" style="rounded=0;whiteSpace=wrap;html=1;align=left;strokeColor=none;fillColor=none;" parent="opmuxgLEek1yOhuW0azc-1" vertex="1">
          <mxGeometry x="670" y="750" width="240" height="20" as="geometry" />
        </mxCell>
        <mxCell id="opmuxgLEek1yOhuW0azc-44" value="Sviluppata da Bancomat, o da uno dei Centri Servizi o Istituti indicati" style="rounded=0;whiteSpace=wrap;html=1;align=left;strokeColor=none;fillColor=none;" parent="opmuxgLEek1yOhuW0azc-1" vertex="1">
          <mxGeometry x="670" y="840" width="240" height="20" as="geometry" />
        </mxCell>
        <mxCell id="opmuxgLEek1yOhuW0azc-45" value="&lt;b&gt;App IO Back-end&lt;/b&gt;" style="html=1;dropTarget=0;fillColor=#ffe6cc;strokeColor=#d79b00;" parent="opmuxgLEek1yOhuW0azc-1" vertex="1">
          <mxGeometry x="440" y="360" width="120" height="80" as="geometry" />
        </mxCell>
        <mxCell id="opmuxgLEek1yOhuW0azc-46" value="" style="shape=module;jettyWidth=8;jettyHeight=4;" parent="opmuxgLEek1yOhuW0azc-45" vertex="1">
          <mxGeometry x="1" width="20" height="20" relative="1" as="geometry">
            <mxPoint x="-27" y="7" as="offset" />
          </mxGeometry>
        </mxCell>
        <mxCell id="opmuxgLEek1yOhuW0azc-47" value="«Service»&lt;b&gt;&lt;br&gt;PDV-Tokenizer&lt;/b&gt;" style="html=1;dropTarget=0;" parent="opmuxgLEek1yOhuW0azc-1" vertex="1">
          <mxGeometry x="440" y="480" width="120" height="80" as="geometry" />
        </mxCell>
        <mxCell id="opmuxgLEek1yOhuW0azc-48" value="" style="shape=module;jettyWidth=8;jettyHeight=4;" parent="opmuxgLEek1yOhuW0azc-47" vertex="1">
          <mxGeometry x="1" width="20" height="20" relative="1" as="geometry">
            <mxPoint x="-27" y="7" as="offset" />
          </mxGeometry>
        </mxCell>
        <mxCell id="opmuxgLEek1yOhuW0azc-49" value="" style="endArrow=block;html=1;rounded=0;endFill=1;strokeWidth=2;dashed=1;" parent="opmuxgLEek1yOhuW0azc-1" source="opmuxgLEek1yOhuW0azc-10" target="opmuxgLEek1yOhuW0azc-30" edge="1">
          <mxGeometry width="50" height="50" relative="1" as="geometry">
            <mxPoint x="430" y="370" as="sourcePoint" />
            <mxPoint x="470" y="400" as="targetPoint" />
          </mxGeometry>
        </mxCell>
        <mxCell id="opmuxgLEek1yOhuW0azc-50" value="«Service»&lt;br&gt;&lt;b&gt;PM-RTD&lt;/b&gt;" style="html=1;dropTarget=0;fillColor=#ffe6cc;strokeColor=#d79b00;" parent="opmuxgLEek1yOhuW0azc-1" vertex="1">
          <mxGeometry x="440" y="120" width="120" height="80" as="geometry" />
        </mxCell>
        <mxCell id="opmuxgLEek1yOhuW0azc-51" value="" style="shape=module;jettyWidth=8;jettyHeight=4;" parent="opmuxgLEek1yOhuW0azc-50" vertex="1">
          <mxGeometry x="1" width="20" height="20" relative="1" as="geometry">
            <mxPoint x="-27" y="7" as="offset" />
          </mxGeometry>
        </mxCell>
        <mxCell id="opmuxgLEek1yOhuW0azc-52" value="" style="endArrow=block;html=1;rounded=0;endFill=1;strokeWidth=2;dashed=1;elbow=vertical;exitX=0.75;exitY=0;exitDx=0;exitDy=0;edgeStyle=orthogonalEdgeStyle;entryX=0;entryY=0.5;entryDx=0;entryDy=0;fillColor=#e51400;strokeColor=#FF0000;" parent="opmuxgLEek1yOhuW0azc-1" source="opmuxgLEek1yOhuW0azc-19" target="opmuxgLEek1yOhuW0azc-50" edge="1">
          <mxGeometry width="50" height="50" relative="1" as="geometry">
            <mxPoint x="-30" y="410" as="sourcePoint" />
            <mxPoint x="370" y="410" as="targetPoint" />
            <Array as="points">
              <mxPoint x="130" y="70" />
              <mxPoint x="410" y="70" />
              <mxPoint x="410" y="160" />
            </Array>
          </mxGeometry>
        </mxCell>
        <mxCell id="opmuxgLEek1yOhuW0azc-53" value="«Service»&lt;b&gt;&lt;br&gt;PM-Wallet&lt;/b&gt;" style="html=1;dropTarget=0;fillColor=#ffe6cc;strokeColor=#d79b00;" parent="opmuxgLEek1yOhuW0azc-1" vertex="1">
          <mxGeometry x="440" y="240" width="120" height="80" as="geometry" />
        </mxCell>
        <mxCell id="opmuxgLEek1yOhuW0azc-54" value="" style="shape=module;jettyWidth=8;jettyHeight=4;" parent="opmuxgLEek1yOhuW0azc-53" vertex="1">
          <mxGeometry x="1" width="20" height="20" relative="1" as="geometry">
            <mxPoint x="-27" y="7" as="offset" />
          </mxGeometry>
        </mxCell>
        <mxCell id="opmuxgLEek1yOhuW0azc-55" value="" style="endArrow=block;html=1;rounded=0;endFill=1;strokeWidth=2;dashed=1;" parent="opmuxgLEek1yOhuW0azc-1" source="opmuxgLEek1yOhuW0azc-12" target="opmuxgLEek1yOhuW0azc-53" edge="1">
          <mxGeometry width="50" height="50" relative="1" as="geometry">
            <mxPoint x="-60" y="410" as="sourcePoint" />
            <mxPoint x="470" y="690" as="targetPoint" />
          </mxGeometry>
        </mxCell>
        <mxCell id="opmuxgLEek1yOhuW0azc-56" value="" style="endArrow=none;html=1;rounded=0;endFill=0;startArrow=block;startFill=1;elbow=vertical;strokeWidth=2;dashed=1;entryX=0.75;entryY=0;entryDx=0;entryDy=0;exitX=0.25;exitY=1;exitDx=0;exitDy=0;edgeStyle=orthogonalEdgeStyle;" parent="opmuxgLEek1yOhuW0azc-1" source="opmuxgLEek1yOhuW0azc-53" target="opmuxgLEek1yOhuW0azc-8" edge="1">
          <mxGeometry width="50" height="50" relative="1" as="geometry">
            <mxPoint x="370" y="410" as="sourcePoint" />
            <mxPoint x="390" y="400" as="targetPoint" />
            <Array as="points">
              <mxPoint x="470" y="350" />
              <mxPoint x="350" y="350" />
            </Array>
          </mxGeometry>
        </mxCell>
        <mxCell id="opmuxgLEek1yOhuW0azc-57" value="" style="endArrow=block;html=1;rounded=0;endFill=1;strokeWidth=2;dashed=1;entryX=0;entryY=0.5;entryDx=0;entryDy=0;" parent="opmuxgLEek1yOhuW0azc-1" source="opmuxgLEek1yOhuW0azc-14" target="opmuxgLEek1yOhuW0azc-47" edge="1">
          <mxGeometry width="50" height="50" relative="1" as="geometry">
            <mxPoint x="50" y="270" as="sourcePoint" />
            <mxPoint x="130" y="370" as="targetPoint" />
          </mxGeometry>
        </mxCell>
        <mxCell id="opmuxgLEek1yOhuW0azc-58" value="«Service»&lt;br&gt;&lt;b&gt;Functions&lt;/b&gt;" style="html=1;dropTarget=0;fillColor=#fff2cc;strokeColor=#d6b656;" parent="opmuxgLEek1yOhuW0azc-1" vertex="1">
          <mxGeometry x="260" y="120" width="120" height="80" as="geometry" />
        </mxCell>
        <mxCell id="opmuxgLEek1yOhuW0azc-59" value="" style="shape=module;jettyWidth=8;jettyHeight=4;" parent="opmuxgLEek1yOhuW0azc-58" vertex="1">
          <mxGeometry x="1" width="20" height="20" relative="1" as="geometry">
            <mxPoint x="-27" y="7" as="offset" />
          </mxGeometry>
        </mxCell>
        <mxCell id="opmuxgLEek1yOhuW0azc-60" value="" style="endArrow=block;html=1;rounded=0;endFill=1;strokeWidth=2;dashed=1;entryX=0;entryY=0.5;entryDx=0;entryDy=0;fillColor=#e51400;strokeColor=#FF0000;exitX=1;exitY=0.25;exitDx=0;exitDy=0;edgeStyle=orthogonalEdgeStyle;" parent="opmuxgLEek1yOhuW0azc-1" source="opmuxgLEek1yOhuW0azc-19" target="opmuxgLEek1yOhuW0azc-58" edge="1">
          <mxGeometry width="50" height="50" relative="1" as="geometry">
            <mxPoint x="30" y="270" as="sourcePoint" />
            <mxPoint x="110" y="370" as="targetPoint" />
            <Array as="points">
              <mxPoint x="220" y="140" />
              <mxPoint x="220" y="160" />
            </Array>
          </mxGeometry>
        </mxCell>
        <mxCell id="opmuxgLEek1yOhuW0azc-61" value="&lt;b&gt;PAN to&amp;nbsp;Tax&lt;br&gt;Code API&lt;/b&gt;" style="html=1;dropTarget=0;fillColor=#647687;fontColor=#ffffff;strokeColor=#314354;" parent="opmuxgLEek1yOhuW0azc-1" vertex="1">
          <mxGeometry x="860" y="600" width="120" height="80" as="geometry" />
        </mxCell>
        <mxCell id="opmuxgLEek1yOhuW0azc-62" value="" style="shape=module;jettyWidth=8;jettyHeight=4;" parent="opmuxgLEek1yOhuW0azc-61" vertex="1">
          <mxGeometry x="1" width="20" height="20" relative="1" as="geometry">
            <mxPoint x="-27" y="7" as="offset" />
          </mxGeometry>
        </mxCell>
        <mxCell id="opmuxgLEek1yOhuW0azc-63" value="Managed by Intesa Sanpaolo" style="html=1;dashed=1;fontStyle=0;verticalAlign=top;dashPattern=1 4;fillColor=#f5f5f5;strokeColor=none;fontColor=#333333;" parent="opmuxgLEek1yOhuW0azc-1" vertex="1">
          <mxGeometry x="640" y="320" width="160" height="140" as="geometry" />
        </mxCell>
        <mxCell id="opmuxgLEek1yOhuW0azc-64" value="" style="endArrow=block;html=1;rounded=0;endFill=1;strokeWidth=2;dashed=1;exitX=0.75;exitY=1;exitDx=0;exitDy=0;entryX=0;entryY=0.5;entryDx=0;entryDy=0;edgeStyle=orthogonalEdgeStyle;fillColor=#e51400;strokeColor=#0000FF;" parent="opmuxgLEek1yOhuW0azc-1" source="opmuxgLEek1yOhuW0azc-53" target="opmuxgLEek1yOhuW0azc-67" edge="1">
          <mxGeometry width="50" height="50" relative="1" as="geometry">
            <mxPoint x="590" y="690" as="sourcePoint" />
            <mxPoint x="890" y="290" as="targetPoint" />
            <Array as="points">
              <mxPoint x="530" y="350" />
              <mxPoint x="610" y="350" />
              <mxPoint x="610" y="640" />
            </Array>
          </mxGeometry>
        </mxCell>
        <mxCell id="opmuxgLEek1yOhuW0azc-65" value="&lt;b&gt;PAN to&amp;nbsp;Tax&lt;br&gt;Code API&lt;/b&gt;" style="html=1;dropTarget=0;fillColor=#647687;fontColor=#ffffff;strokeColor=#314354;" parent="opmuxgLEek1yOhuW0azc-1" vertex="1">
          <mxGeometry x="660" y="360" width="120" height="80" as="geometry" />
        </mxCell>
        <mxCell id="opmuxgLEek1yOhuW0azc-66" value="" style="shape=module;jettyWidth=8;jettyHeight=4;" parent="opmuxgLEek1yOhuW0azc-65" vertex="1">
          <mxGeometry x="1" width="20" height="20" relative="1" as="geometry">
            <mxPoint x="-27" y="7" as="offset" />
          </mxGeometry>
        </mxCell>
        <mxCell id="opmuxgLEek1yOhuW0azc-67" value="&lt;b&gt;PAN to&amp;nbsp;Tax&lt;br&gt;Code API&lt;/b&gt;" style="html=1;dropTarget=0;fillColor=#647687;fontColor=#ffffff;strokeColor=#314354;" parent="opmuxgLEek1yOhuW0azc-1" vertex="1">
          <mxGeometry x="660" y="600" width="120" height="80" as="geometry" />
        </mxCell>
        <mxCell id="opmuxgLEek1yOhuW0azc-68" value="" style="shape=module;jettyWidth=8;jettyHeight=4;" parent="opmuxgLEek1yOhuW0azc-67" vertex="1">
          <mxGeometry x="1" width="20" height="20" relative="1" as="geometry">
            <mxPoint x="-27" y="7" as="offset" />
          </mxGeometry>
        </mxCell>
        <mxCell id="opmuxgLEek1yOhuW0azc-69" value="" style="endArrow=block;html=1;rounded=0;endFill=1;strokeWidth=2;dashed=1;exitX=1;exitY=0.75;exitDx=0;exitDy=0;edgeStyle=orthogonalEdgeStyle;strokeColor=#0000FF;entryX=0;entryY=0.5;entryDx=0;entryDy=0;" parent="opmuxgLEek1yOhuW0azc-1" source="opmuxgLEek1yOhuW0azc-53" target="opmuxgLEek1yOhuW0azc-61" edge="1">
          <mxGeometry width="50" height="50" relative="1" as="geometry">
            <mxPoint x="560" y="710" as="sourcePoint" />
            <mxPoint x="840" y="520" as="targetPoint" />
            <Array as="points">
              <mxPoint x="620" y="300" />
              <mxPoint x="620" y="510" />
              <mxPoint x="820" y="510" />
              <mxPoint x="820" y="640" />
            </Array>
          </mxGeometry>
        </mxCell>
        <mxCell id="opmuxgLEek1yOhuW0azc-70" value="" style="endArrow=block;html=1;rounded=0;endFill=1;strokeWidth=2;dashed=1;exitX=0.5;exitY=0;exitDx=0;exitDy=0;entryX=0;entryY=0.5;entryDx=0;entryDy=0;edgeStyle=orthogonalEdgeStyle;strokeColor=#0000FF;" parent="opmuxgLEek1yOhuW0azc-1" source="opmuxgLEek1yOhuW0azc-53" target="opmuxgLEek1yOhuW0azc-26" edge="1">
          <mxGeometry width="50" height="50" relative="1" as="geometry">
            <mxPoint x="590" y="690" as="sourcePoint" />
            <mxPoint x="590" y="830" as="targetPoint" />
            <Array as="points">
              <mxPoint x="500" y="220" />
              <mxPoint x="620" y="220" />
              <mxPoint x="620" y="160" />
            </Array>
          </mxGeometry>
        </mxCell>
        <mxCell id="57wzgMmFu3WZAl-rP_Zv-3" value="" style="endArrow=block;html=1;rounded=0;endFill=1;strokeWidth=2;dashed=1;fillColor=#e51400;strokeColor=#FF0000;" parent="opmuxgLEek1yOhuW0azc-1" edge="1">
          <mxGeometry width="50" height="50" relative="1" as="geometry">
            <mxPoint x="636.25" y="1000.2499999999999" as="sourcePoint" />
            <mxPoint x="663.75" y="999.7499999999999" as="targetPoint" />
          </mxGeometry>
        </mxCell>
        <mxCell id="57wzgMmFu3WZAl-rP_Zv-6" value="Inbound connection" style="rounded=0;whiteSpace=wrap;html=1;align=left;strokeColor=none;fillColor=none;" parent="opmuxgLEek1yOhuW0azc-1" vertex="1">
          <mxGeometry x="670" y="990" width="240" height="20" as="geometry" />
        </mxCell>
        <mxCell id="57wzgMmFu3WZAl-rP_Zv-7" value="" style="endArrow=block;html=1;rounded=0;endFill=1;strokeWidth=2;dashed=1;fillColor=#e51400;strokeColor=#0000FF;" parent="opmuxgLEek1yOhuW0azc-1" edge="1">
          <mxGeometry width="50" height="50" relative="1" as="geometry">
            <mxPoint x="636.25" y="970.2499999999998" as="sourcePoint" />
            <mxPoint x="663.75" y="969.7499999999998" as="targetPoint" />
          </mxGeometry>
        </mxCell>
        <mxCell id="57wzgMmFu3WZAl-rP_Zv-8" value="Outbound connection" style="rounded=0;whiteSpace=wrap;html=1;align=left;strokeColor=none;fillColor=none;" parent="opmuxgLEek1yOhuW0azc-1" vertex="1">
          <mxGeometry x="670" y="960" width="240" height="20" as="geometry" />
        </mxCell>
        <mxCell id="57wzgMmFu3WZAl-rP_Zv-10" value="" style="endArrow=none;html=1;rounded=0;endFill=0;startArrow=block;startFill=1;elbow=vertical;strokeWidth=2;dashed=1;entryX=0.25;entryY=0;entryDx=0;entryDy=0;exitX=0.25;exitY=1;exitDx=0;exitDy=0;" parent="opmuxgLEek1yOhuW0azc-1" source="opmuxgLEek1yOhuW0azc-50" target="opmuxgLEek1yOhuW0azc-53" edge="1">
          <mxGeometry width="50" height="50" relative="1" as="geometry">
            <mxPoint x="330" y="370" as="sourcePoint" />
            <mxPoint x="330" y="330" as="targetPoint" />
          </mxGeometry>
        </mxCell>
        <mxCell id="MMv6DRfCGtYMjh-boBng-0" value="Managed by ICCREA" style="html=1;dashed=1;fontStyle=0;verticalAlign=top;dashPattern=1 4;fillColor=#f5f5f5;strokeColor=none;fontColor=#333333;" parent="opmuxgLEek1yOhuW0azc-1" vertex="1">
          <mxGeometry x="840" y="320" width="160" height="140" as="geometry" />
        </mxCell>
        <mxCell id="MMv6DRfCGtYMjh-boBng-1" value="&lt;b&gt;PAN to&amp;nbsp;Tax&lt;br&gt;Code API&lt;/b&gt;" style="html=1;dropTarget=0;fillColor=#647687;fontColor=#ffffff;strokeColor=#314354;" parent="opmuxgLEek1yOhuW0azc-1" vertex="1">
          <mxGeometry x="860" y="360" width="120" height="80" as="geometry" />
        </mxCell>
        <mxCell id="MMv6DRfCGtYMjh-boBng-2" value="" style="shape=module;jettyWidth=8;jettyHeight=4;" parent="MMv6DRfCGtYMjh-boBng-1" vertex="1">
          <mxGeometry x="1" width="20" height="20" relative="1" as="geometry">
            <mxPoint x="-27" y="7" as="offset" />
          </mxGeometry>
        </mxCell>
        <mxCell id="MMv6DRfCGtYMjh-boBng-3" value="" style="endArrow=block;html=1;rounded=0;endFill=1;strokeWidth=2;dashed=1;exitX=0.75;exitY=0;exitDx=0;exitDy=0;entryX=0;entryY=0.5;entryDx=0;entryDy=0;edgeStyle=orthogonalEdgeStyle;strokeColor=#0000FF;" parent="opmuxgLEek1yOhuW0azc-1" source="opmuxgLEek1yOhuW0azc-53" target="opmuxgLEek1yOhuW0azc-28" edge="1">
          <mxGeometry width="50" height="50" relative="1" as="geometry">
            <mxPoint x="570" y="310" as="sourcePoint" />
            <mxPoint x="670" y="410" as="targetPoint" />
            <Array as="points">
              <mxPoint x="530" y="230" />
              <mxPoint x="820" y="230" />
              <mxPoint x="820" y="160" />
            </Array>
          </mxGeometry>
        </mxCell>
        <mxCell id="opmuxgLEek1yOhuW0azc-32" value="" style="endArrow=block;html=1;rounded=0;endFill=1;strokeWidth=2;dashed=1;exitX=1;exitY=0.5;exitDx=0;exitDy=0;edgeStyle=orthogonalEdgeStyle;strokeColor=#0000FF;entryX=0;entryY=0.5;entryDx=0;entryDy=0;" parent="opmuxgLEek1yOhuW0azc-1" source="opmuxgLEek1yOhuW0azc-53" target="opmuxgLEek1yOhuW0azc-65" edge="1">
          <mxGeometry width="50" height="50" relative="1" as="geometry">
            <mxPoint x="440" y="680" as="sourcePoint" />
            <mxPoint x="840" y="420" as="targetPoint" />
            <Array as="points">
              <mxPoint x="630" y="280" />
              <mxPoint x="630" y="400" />
            </Array>
          </mxGeometry>
        </mxCell>
        <mxCell id="opmuxgLEek1yOhuW0azc-71" value="" style="endArrow=block;html=1;rounded=0;endFill=1;strokeWidth=2;dashed=1;exitX=1;exitY=0.25;exitDx=0;exitDy=0;entryX=0;entryY=0.5;entryDx=0;entryDy=0;edgeStyle=orthogonalEdgeStyle;strokeColor=#0000FF;" parent="opmuxgLEek1yOhuW0azc-1" source="opmuxgLEek1yOhuW0azc-53" target="MMv6DRfCGtYMjh-boBng-1" edge="1">
          <mxGeometry width="50" height="50" relative="1" as="geometry">
            <mxPoint x="460" y="800" as="sourcePoint" />
            <mxPoint x="660" y="500" as="targetPoint" />
            <Array as="points">
              <mxPoint x="820" y="260" />
              <mxPoint x="820" y="400" />
            </Array>
          </mxGeometry>
        </mxCell>
        <mxCell id="u8uzgwCI_1PCxtKQNaM_-1" value="" style="endArrow=none;html=1;rounded=0;endFill=0;startArrow=block;startFill=1;strokeWidth=2;dashed=1;entryX=0.75;entryY=1;entryDx=0;entryDy=0;exitX=0.75;exitY=0;exitDx=0;exitDy=0;edgeStyle=orthogonalEdgeStyle;" parent="opmuxgLEek1yOhuW0azc-1" source="opmuxgLEek1yOhuW0azc-14" target="opmuxgLEek1yOhuW0azc-8" edge="1">
          <mxGeometry width="50" height="50" relative="1" as="geometry">
            <mxPoint x="300" y="490" as="sourcePoint" />
            <mxPoint x="300" y="450" as="targetPoint" />
          </mxGeometry>
        </mxCell>
        <mxCell id="u8uzgwCI_1PCxtKQNaM_-2" value="" style="shape=cylinder3;whiteSpace=wrap;html=1;boundedLbl=1;backgroundOutline=1;size=15;fillColor=#bac8d3;strokeColor=#23445d;" parent="opmuxgLEek1yOhuW0azc-1" vertex="1">
          <mxGeometry x="360" y="540" width="30" height="40" as="geometry" />
        </mxCell>
        <mxCell id="u8uzgwCI_1PCxtKQNaM_-5" value="" style="shape=cylinder3;whiteSpace=wrap;html=1;boundedLbl=1;backgroundOutline=1;size=15;fillColor=#dae8fc;strokeColor=#6c8ebf;" parent="opmuxgLEek1yOhuW0azc-1" vertex="1">
          <mxGeometry x="360" y="420" width="30" height="40" as="geometry" />
        </mxCell>
        <mxCell id="u8uzgwCI_1PCxtKQNaM_-6" value="" style="shape=cylinder3;whiteSpace=wrap;html=1;boundedLbl=1;backgroundOutline=1;size=15;fillColor=#dae8fc;strokeColor=#6c8ebf;" parent="opmuxgLEek1yOhuW0azc-1" vertex="1">
          <mxGeometry x="360" y="655" width="30" height="40" as="geometry" />
        </mxCell>
        <mxCell id="u8uzgwCI_1PCxtKQNaM_-7" value="" style="shape=cylinder3;whiteSpace=wrap;html=1;boundedLbl=1;backgroundOutline=1;size=15;fillColor=#bac8d3;strokeColor=#23445d;" parent="opmuxgLEek1yOhuW0azc-1" vertex="1">
          <mxGeometry x="360" y="180" width="30" height="40" as="geometry" />
        </mxCell>
        <mxCell id="u8uzgwCI_1PCxtKQNaM_-9" value="" style="shape=cylinder3;whiteSpace=wrap;html=1;boundedLbl=1;backgroundOutline=1;size=15;fillColor=#dae8fc;strokeColor=#6c8ebf;" parent="opmuxgLEek1yOhuW0azc-1" vertex="1">
          <mxGeometry x="640" y="900" width="20" height="20" as="geometry" />
        </mxCell>
        <mxCell id="u8uzgwCI_1PCxtKQNaM_-10" value="Cache distribuita (ad es.: Redis)" style="rounded=0;whiteSpace=wrap;html=1;align=left;strokeColor=none;fillColor=none;" parent="opmuxgLEek1yOhuW0azc-1" vertex="1">
          <mxGeometry x="670" y="900" width="240" height="20" as="geometry" />
        </mxCell>
        <mxCell id="u8uzgwCI_1PCxtKQNaM_-11" value="" style="shape=cylinder3;whiteSpace=wrap;html=1;boundedLbl=1;backgroundOutline=1;size=15;fillColor=#bac8d3;strokeColor=#23445d;" parent="opmuxgLEek1yOhuW0azc-1" vertex="1">
          <mxGeometry x="640" y="930" width="20" height="20" as="geometry" />
        </mxCell>
        <mxCell id="u8uzgwCI_1PCxtKQNaM_-12" value="DB NoSQL (ad es.: CosmoDB)" style="rounded=0;whiteSpace=wrap;html=1;align=left;strokeColor=none;fillColor=none;" parent="opmuxgLEek1yOhuW0azc-1" vertex="1">
          <mxGeometry x="670" y="930" width="240" height="20" as="geometry" />
        </mxCell>
        <mxCell id="SVyhK860mrj7wWulX9DA-0" value="&lt;b&gt;GEC&lt;/b&gt;" style="html=1;dropTarget=0;fillColor=#ffe6cc;strokeColor=#d79b00;" parent="opmuxgLEek1yOhuW0azc-1" vertex="1">
          <mxGeometry x="440" y="720" width="120" height="80" as="geometry" />
        </mxCell>
        <mxCell id="SVyhK860mrj7wWulX9DA-1" value="" style="shape=module;jettyWidth=8;jettyHeight=4;" parent="SVyhK860mrj7wWulX9DA-0" vertex="1">
          <mxGeometry x="1" width="20" height="20" relative="1" as="geometry">
            <mxPoint x="-27" y="7" as="offset" />
          </mxGeometry>
        </mxCell>
        <mxCell id="SVyhK860mrj7wWulX9DA-2" value="" style="endArrow=block;html=1;rounded=0;endFill=1;strokeWidth=2;dashed=1;exitX=1;exitY=0.5;exitDx=0;exitDy=0;entryX=0;entryY=0.5;entryDx=0;entryDy=0;edgeStyle=orthogonalEdgeStyle;startArrow=none;" parent="opmuxgLEek1yOhuW0azc-1" source="aNiyYQO29FQ-2PqR_opk-0" target="SVyhK860mrj7wWulX9DA-0" edge="1">
          <mxGeometry width="50" height="50" relative="1" as="geometry">
            <mxPoint x="390" y="650" as="sourcePoint" />
            <mxPoint x="450" y="650" as="targetPoint" />
          </mxGeometry>
        </mxCell>
        <mxCell id="aNiyYQO29FQ-2PqR_opk-0" value="«Service»&lt;br&gt;&lt;b&gt;Fee Calculator&lt;/b&gt;" style="html=1;dropTarget=0;fillColor=#fff2cc;strokeColor=#d6b656;" parent="opmuxgLEek1yOhuW0azc-1" vertex="1">
          <mxGeometry x="260" y="720" width="120" height="80" as="geometry" />
        </mxCell>
        <mxCell id="aNiyYQO29FQ-2PqR_opk-1" value="" style="shape=module;jettyWidth=8;jettyHeight=4;" parent="aNiyYQO29FQ-2PqR_opk-0" vertex="1">
          <mxGeometry x="1" width="20" height="20" relative="1" as="geometry">
            <mxPoint x="-27" y="7" as="offset" />
          </mxGeometry>
        </mxCell>
        <mxCell id="aNiyYQO29FQ-2PqR_opk-3" value="" style="endArrow=block;html=1;rounded=0;endFill=1;strokeWidth=2;dashed=1;exitX=0.25;exitY=1;exitDx=0;exitDy=0;entryX=0;entryY=0.5;entryDx=0;entryDy=0;edgeStyle=orthogonalEdgeStyle;fillColor=#e51400;strokeColor=#FF0000;" parent="opmuxgLEek1yOhuW0azc-1" source="opmuxgLEek1yOhuW0azc-19" target="aNiyYQO29FQ-2PqR_opk-0" edge="1">
          <mxGeometry width="50" height="50" relative="1" as="geometry">
            <mxPoint x="80" y="210" as="sourcePoint" />
            <mxPoint x="270" y="650" as="targetPoint" />
            <Array as="points">
              <mxPoint x="70" y="760" />
            </Array>
          </mxGeometry>
        </mxCell>
        <mxCell id="aNiyYQO29FQ-2PqR_opk-7" value="«Service»&lt;br&gt;&lt;b&gt;Debit Position&lt;/b&gt;" style="html=1;dropTarget=0;fillColor=#b1ddf0;strokeColor=#10739e;" parent="opmuxgLEek1yOhuW0azc-1" vertex="1">
          <mxGeometry x="259.13" y="840" width="120" height="80" as="geometry" />
        </mxCell>
        <mxCell id="aNiyYQO29FQ-2PqR_opk-8" value="" style="shape=module;jettyWidth=8;jettyHeight=4;" parent="aNiyYQO29FQ-2PqR_opk-7" vertex="1">
          <mxGeometry x="1" width="20" height="20" relative="1" as="geometry">
            <mxPoint x="-27" y="7" as="offset" />
          </mxGeometry>
        </mxCell>
        <mxCell id="aNiyYQO29FQ-2PqR_opk-9" value="«Service»&lt;br&gt;&lt;b&gt;IDPay Wrapper&lt;/b&gt;" style="html=1;dropTarget=0;fillColor=#b1ddf0;strokeColor=#10739e;" parent="opmuxgLEek1yOhuW0azc-1" vertex="1">
          <mxGeometry x="259.13" y="960" width="120" height="80" as="geometry" />
        </mxCell>
        <mxCell id="aNiyYQO29FQ-2PqR_opk-10" value="" style="shape=module;jettyWidth=8;jettyHeight=4;" parent="aNiyYQO29FQ-2PqR_opk-9" vertex="1">
          <mxGeometry x="1" width="20" height="20" relative="1" as="geometry">
            <mxPoint x="-27" y="7" as="offset" />
          </mxGeometry>
        </mxCell>
        <mxCell id="aNiyYQO29FQ-2PqR_opk-11" value="&lt;b&gt;Archivio&lt;br&gt;Centralizzato&lt;/b&gt;" style="html=1;dropTarget=0;fillColor=#ffe6cc;strokeColor=#d79b00;" parent="opmuxgLEek1yOhuW0azc-1" vertex="1">
          <mxGeometry x="440" y="840" width="120" height="80" as="geometry" />
        </mxCell>
        <mxCell id="aNiyYQO29FQ-2PqR_opk-12" value="" style="shape=module;jettyWidth=8;jettyHeight=4;" parent="aNiyYQO29FQ-2PqR_opk-11" vertex="1">
          <mxGeometry x="1" width="20" height="20" relative="1" as="geometry">
            <mxPoint x="-27" y="7" as="offset" />
          </mxGeometry>
        </mxCell>
        <mxCell id="aNiyYQO29FQ-2PqR_opk-13" value="&lt;b&gt;IDPay Platform&lt;/b&gt;" style="html=1;dropTarget=0;fillColor=#ffe6cc;strokeColor=#d79b00;" parent="opmuxgLEek1yOhuW0azc-1" vertex="1">
          <mxGeometry x="440" y="960" width="120" height="80" as="geometry" />
        </mxCell>
        <mxCell id="aNiyYQO29FQ-2PqR_opk-14" value="" style="shape=module;jettyWidth=8;jettyHeight=4;" parent="aNiyYQO29FQ-2PqR_opk-13" vertex="1">
          <mxGeometry x="1" width="20" height="20" relative="1" as="geometry">
            <mxPoint x="-27" y="7" as="offset" />
          </mxGeometry>
        </mxCell>
        <mxCell id="aNiyYQO29FQ-2PqR_opk-15" value="" style="endArrow=block;html=1;rounded=0;endFill=1;strokeWidth=2;dashed=1;exitX=1;exitY=0.5;exitDx=0;exitDy=0;edgeStyle=orthogonalEdgeStyle;startArrow=none;" parent="opmuxgLEek1yOhuW0azc-1" source="aNiyYQO29FQ-2PqR_opk-7" edge="1">
          <mxGeometry width="50" height="50" relative="1" as="geometry">
            <mxPoint x="390" y="770" as="sourcePoint" />
            <mxPoint x="440" y="880" as="targetPoint" />
          </mxGeometry>
        </mxCell>
        <mxCell id="aNiyYQO29FQ-2PqR_opk-16" value="" style="endArrow=block;html=1;rounded=0;endFill=1;strokeWidth=2;dashed=1;exitX=1;exitY=0.5;exitDx=0;exitDy=0;edgeStyle=orthogonalEdgeStyle;startArrow=none;entryX=0;entryY=0.5;entryDx=0;entryDy=0;" parent="opmuxgLEek1yOhuW0azc-1" source="aNiyYQO29FQ-2PqR_opk-9" target="aNiyYQO29FQ-2PqR_opk-13" edge="1">
          <mxGeometry width="50" height="50" relative="1" as="geometry">
            <mxPoint x="389.1300000000001" y="890" as="sourcePoint" />
            <mxPoint x="450" y="890" as="targetPoint" />
          </mxGeometry>
        </mxCell>
        <mxCell id="aNiyYQO29FQ-2PqR_opk-17" value="A" style="ellipse;whiteSpace=wrap;html=1;aspect=fixed;fillColor=#fad9d5;strokeColor=#ae4132;" parent="opmuxgLEek1yOhuW0azc-1" vertex="1">
          <mxGeometry x="220" y="330" width="20" height="20" as="geometry" />
        </mxCell>
        <mxCell id="aNiyYQO29FQ-2PqR_opk-18" value="" style="endArrow=none;html=1;rounded=0;endFill=0;startArrow=block;startFill=1;elbow=vertical;strokeWidth=2;dashed=1;entryX=1;entryY=0.5;entryDx=0;entryDy=0;exitX=0.25;exitY=0;exitDx=0;exitDy=0;edgeStyle=orthogonalEdgeStyle;" parent="opmuxgLEek1yOhuW0azc-1" source="opmuxgLEek1yOhuW0azc-8" target="aNiyYQO29FQ-2PqR_opk-17" edge="1">
          <mxGeometry width="50" height="50" relative="1" as="geometry">
            <mxPoint x="330" y="370" as="sourcePoint" />
            <mxPoint x="330" y="330" as="targetPoint" />
          </mxGeometry>
        </mxCell>
        <mxCell id="aNiyYQO29FQ-2PqR_opk-20" value="A" style="ellipse;whiteSpace=wrap;html=1;aspect=fixed;fillColor=#fad9d5;strokeColor=#ae4132;" parent="opmuxgLEek1yOhuW0azc-1" vertex="1">
          <mxGeometry x="220" y="810" width="20" height="20" as="geometry" />
        </mxCell>
        <mxCell id="aNiyYQO29FQ-2PqR_opk-21" value="" style="endArrow=none;html=1;rounded=0;endFill=0;startArrow=block;startFill=1;elbow=vertical;strokeWidth=2;dashed=1;entryX=0;entryY=0.25;entryDx=0;entryDy=0;exitX=0.5;exitY=1;exitDx=0;exitDy=0;edgeStyle=orthogonalEdgeStyle;" parent="opmuxgLEek1yOhuW0azc-1" source="aNiyYQO29FQ-2PqR_opk-20" target="aNiyYQO29FQ-2PqR_opk-7" edge="1">
          <mxGeometry width="50" height="50" relative="1" as="geometry">
            <mxPoint x="300" y="370" as="sourcePoint" />
            <mxPoint x="300" y="360" as="targetPoint" />
          </mxGeometry>
        </mxCell>
        <mxCell id="aNiyYQO29FQ-2PqR_opk-22" value="A" style="ellipse;whiteSpace=wrap;html=1;aspect=fixed;fillColor=#fad9d5;strokeColor=#ae4132;" parent="opmuxgLEek1yOhuW0azc-1" vertex="1">
          <mxGeometry x="220" y="930" width="20" height="20" as="geometry" />
        </mxCell>
        <mxCell id="aNiyYQO29FQ-2PqR_opk-23" value="" style="endArrow=none;html=1;rounded=0;endFill=0;startArrow=block;startFill=1;elbow=vertical;strokeWidth=2;dashed=1;entryX=0;entryY=0.25;entryDx=0;entryDy=0;edgeStyle=orthogonalEdgeStyle;exitX=0.5;exitY=1;exitDx=0;exitDy=0;" parent="opmuxgLEek1yOhuW0azc-1" source="aNiyYQO29FQ-2PqR_opk-22" target="aNiyYQO29FQ-2PqR_opk-9" edge="1">
          <mxGeometry width="50" height="50" relative="1" as="geometry">
            <mxPoint x="150" y="1060" as="sourcePoint" />
            <mxPoint x="249.1300000000001" y="970" as="targetPoint" />
          </mxGeometry>
        </mxCell>
        <mxCell id="aNiyYQO29FQ-2PqR_opk-24" value="" style="endArrow=block;html=1;rounded=0;endFill=1;strokeWidth=2;dashed=1;exitX=0;exitY=0.75;exitDx=0;exitDy=0;entryX=0;entryY=0.5;entryDx=0;entryDy=0;edgeStyle=orthogonalEdgeStyle;fillColor=#e51400;strokeColor=#FF0000;" parent="opmuxgLEek1yOhuW0azc-1" source="opmuxgLEek1yOhuW0azc-19" target="aNiyYQO29FQ-2PqR_opk-7" edge="1">
          <mxGeometry width="50" height="50" relative="1" as="geometry">
            <mxPoint x="80" y="210" as="sourcePoint" />
            <mxPoint x="270" y="770" as="targetPoint" />
            <Array as="points">
              <mxPoint x="20" y="180" />
              <mxPoint x="20" y="880" />
            </Array>
          </mxGeometry>
        </mxCell>
        <mxCell id="aNiyYQO29FQ-2PqR_opk-25" value="" style="endArrow=block;html=1;rounded=0;endFill=1;strokeWidth=2;dashed=1;exitX=0;exitY=0.5;exitDx=0;exitDy=0;entryX=0;entryY=0.5;entryDx=0;entryDy=0;edgeStyle=orthogonalEdgeStyle;fillColor=#e51400;strokeColor=#FF0000;" parent="opmuxgLEek1yOhuW0azc-1" source="opmuxgLEek1yOhuW0azc-19" target="aNiyYQO29FQ-2PqR_opk-9" edge="1">
          <mxGeometry width="50" height="50" relative="1" as="geometry">
            <mxPoint x="50" y="190" as="sourcePoint" />
            <mxPoint x="269.1300000000001" y="890" as="targetPoint" />
            <Array as="points">
              <mxPoint y="160" />
              <mxPoint y="1000" />
            </Array>
          </mxGeometry>
        </mxCell>
        <mxCell id="aNiyYQO29FQ-2PqR_opk-26" value="" style="rounded=0;whiteSpace=wrap;html=1;fillColor=#b1ddf0;strokeColor=#10739e;" parent="opmuxgLEek1yOhuW0azc-1" vertex="1">
          <mxGeometry x="640" y="810" width="20" height="20" as="geometry" />
        </mxCell>
        <mxCell id="aNiyYQO29FQ-2PqR_opk-27" value="Sviluppata da PagoPA per Fase #2" style="rounded=0;whiteSpace=wrap;html=1;align=left;strokeColor=none;fillColor=none;" parent="opmuxgLEek1yOhuW0azc-1" vertex="1">
          <mxGeometry x="670" y="810" width="240" height="20" as="geometry" />
        </mxCell>
      </root>
    </mxGraphModel>
  </diagram>
  <diagram name="POS" id="7ewE7TofE4EBEu12Rn-1">
    <mxGraphModel dx="1032" dy="641" grid="1" gridSize="10" guides="1" tooltips="1" connect="1" arrows="1" fold="1" page="1" pageScale="1" pageWidth="827" pageHeight="1169" math="0" shadow="0">
      <root>
        <mxCell id="lANYIr80iCtnIKWCvtiR-0" />
        <mxCell id="lANYIr80iCtnIKWCvtiR-1" parent="lANYIr80iCtnIKWCvtiR-0" />
        <mxCell id="FU3x6QqapMDoA3wZc1E0-0" value="&lt;span style=&quot;&quot;&gt;&lt;span&gt;Multi-channel Integration Layer&lt;/span&gt;&lt;/span&gt;" style="html=1;fontStyle=5;verticalAlign=top;fillColor=#d5e8d4;strokeColor=#82b366;strokeWidth=1;" parent="lANYIr80iCtnIKWCvtiR-1" vertex="1">
          <mxGeometry x="520" y="280" width="200" height="560" as="geometry" />
        </mxCell>
        <mxCell id="lANYIr80iCtnIKWCvtiR-11" value="«Service»&lt;br&gt;&lt;b&gt;Payment Notice&lt;/b&gt;" style="html=1;dropTarget=0;fillColor=#fff2cc;strokeColor=#d6b656;" parent="lANYIr80iCtnIKWCvtiR-1" vertex="1">
          <mxGeometry x="560" y="360" width="120" height="80" as="geometry" />
        </mxCell>
        <mxCell id="lANYIr80iCtnIKWCvtiR-19" value="&lt;b&gt;POS&lt;/b&gt;" style="html=1;dropTarget=0;fillColor=#e1d5e7;strokeColor=#9673a6;" parent="lANYIr80iCtnIKWCvtiR-1" vertex="1">
          <mxGeometry x="320" y="480" width="120" height="80" as="geometry" />
        </mxCell>
        <mxCell id="lANYIr80iCtnIKWCvtiR-22" value="" style="endArrow=block;html=1;rounded=0;endFill=1;strokeWidth=2;dashed=1;fillColor=#e51400;strokeColor=#FF0000;" parent="lANYIr80iCtnIKWCvtiR-1" source="lANYIr80iCtnIKWCvtiR-19" target="lANYIr80iCtnIKWCvtiR-11" edge="1">
          <mxGeometry width="50" height="50" relative="1" as="geometry">
            <mxPoint x="-10" y="370" as="sourcePoint" />
            <mxPoint x="110" y="370" as="targetPoint" />
          </mxGeometry>
        </mxCell>
        <mxCell id="lANYIr80iCtnIKWCvtiR-30" value="&lt;b&gt;Nodo&lt;/b&gt;" style="html=1;dropTarget=0;fillColor=#ffe6cc;strokeColor=#d79b00;" parent="lANYIr80iCtnIKWCvtiR-1" vertex="1">
          <mxGeometry x="800" y="360" width="120" height="80" as="geometry" />
        </mxCell>
        <mxCell id="lANYIr80iCtnIKWCvtiR-46" value="" style="endArrow=block;html=1;rounded=0;endFill=1;strokeWidth=2;dashed=1;startArrow=none;startFill=0;strokeColor=#0000FF;entryX=0;entryY=0.25;entryDx=0;entryDy=0;exitX=1;exitY=0.25;exitDx=0;exitDy=0;" parent="lANYIr80iCtnIKWCvtiR-1" source="lANYIr80iCtnIKWCvtiR-11" target="lANYIr80iCtnIKWCvtiR-30" edge="1">
          <mxGeometry width="50" height="50" relative="1" as="geometry">
            <mxPoint x="430" y="370" as="sourcePoint" />
            <mxPoint x="470" y="400" as="targetPoint" />
          </mxGeometry>
        </mxCell>
        <mxCell id="lANYIr80iCtnIKWCvtiR-88" value="&lt;b&gt;GEC&lt;/b&gt;" style="html=1;dropTarget=0;fillColor=#ffe6cc;strokeColor=#d79b00;" parent="lANYIr80iCtnIKWCvtiR-1" vertex="1">
          <mxGeometry x="800" y="600" width="120" height="80" as="geometry" />
        </mxCell>
        <mxCell id="lANYIr80iCtnIKWCvtiR-90" value="" style="endArrow=block;html=1;rounded=0;endFill=1;strokeWidth=2;dashed=1;startArrow=none;strokeColor=#0000FF;" parent="lANYIr80iCtnIKWCvtiR-1" source="lANYIr80iCtnIKWCvtiR-91" target="lANYIr80iCtnIKWCvtiR-88" edge="1">
          <mxGeometry width="50" height="50" relative="1" as="geometry">
            <mxPoint x="470" y="570" as="sourcePoint" />
            <mxPoint x="530" y="570" as="targetPoint" />
          </mxGeometry>
        </mxCell>
        <mxCell id="lANYIr80iCtnIKWCvtiR-91" value="«Service»&lt;br&gt;&lt;b&gt;Fee Calculator&lt;/b&gt;" style="html=1;dropTarget=0;fillColor=#fff2cc;strokeColor=#d6b656;" parent="lANYIr80iCtnIKWCvtiR-1" vertex="1">
          <mxGeometry x="560" y="600" width="120" height="80" as="geometry" />
        </mxCell>
        <mxCell id="52D9Tapz6KT9bFypixHh-1" value="&lt;b&gt;Poynt Services&lt;/b&gt;" style="html=1;dropTarget=0;fillColor=#f5f5f5;fontColor=#333333;strokeColor=#666666;" parent="lANYIr80iCtnIKWCvtiR-1" vertex="1">
          <mxGeometry x="800" y="480" width="120" height="80" as="geometry" />
        </mxCell>
        <mxCell id="52D9Tapz6KT9bFypixHh-3" value="«Service»&lt;br&gt;&lt;b&gt;Auth&lt;/b&gt;" style="html=1;dropTarget=0;fillColor=#fff2cc;strokeColor=#d6b656;" parent="lANYIr80iCtnIKWCvtiR-1" vertex="1">
          <mxGeometry x="560" y="480" width="120" height="80" as="geometry" />
        </mxCell>
        <mxCell id="sPMkp_BQkTJb29Gjssq_-1" value="«Service»&lt;br&gt;&lt;b&gt;Acquirer Config&lt;/b&gt;" style="html=1;dropTarget=0;fillColor=#fff2cc;strokeColor=#d6b656;" parent="lANYIr80iCtnIKWCvtiR-1" vertex="1">
          <mxGeometry x="560" y="720" width="120" height="80" as="geometry" />
        </mxCell>
        <mxCell id="SmFUIS7alfUtvk3t5x0e-0" value="" style="endArrow=block;html=1;rounded=0;endFill=1;startArrow=none;startFill=0;strokeWidth=2;dashed=1;" parent="lANYIr80iCtnIKWCvtiR-1" source="lANYIr80iCtnIKWCvtiR-91" target="sPMkp_BQkTJb29Gjssq_-1" edge="1">
          <mxGeometry width="50" height="50" relative="1" as="geometry">
            <mxPoint x="330.12" y="480" as="sourcePoint" />
            <mxPoint x="330.12" y="440" as="targetPoint" />
          </mxGeometry>
        </mxCell>
        <mxCell id="SmFUIS7alfUtvk3t5x0e-1" value="" style="endArrow=block;html=1;rounded=0;endFill=1;startArrow=none;startFill=0;strokeWidth=2;dashed=1;entryX=1;entryY=0.5;entryDx=0;entryDy=0;exitX=0.5;exitY=0;exitDx=0;exitDy=0;edgeStyle=orthogonalEdgeStyle;" parent="lANYIr80iCtnIKWCvtiR-1" source="lANYIr80iCtnIKWCvtiR-11" target="sPMkp_BQkTJb29Gjssq_-1" edge="1">
          <mxGeometry width="50" height="50" relative="1" as="geometry">
            <mxPoint x="440.0000000000001" y="640" as="sourcePoint" />
            <mxPoint x="340.12" y="450" as="targetPoint" />
            <Array as="points">
              <mxPoint x="620" y="320" />
              <mxPoint x="960" y="320" />
              <mxPoint x="960" y="760" />
            </Array>
          </mxGeometry>
        </mxCell>
        <mxCell id="SmFUIS7alfUtvk3t5x0e-11" value="" style="endArrow=block;html=1;rounded=0;endFill=1;strokeWidth=2;dashed=1;" parent="lANYIr80iCtnIKWCvtiR-1" source="lANYIr80iCtnIKWCvtiR-11" target="52D9Tapz6KT9bFypixHh-3" edge="1">
          <mxGeometry width="50" height="50" relative="1" as="geometry">
            <mxPoint x="390" y="630" as="sourcePoint" />
            <mxPoint x="450" y="630" as="targetPoint" />
          </mxGeometry>
        </mxCell>
        <mxCell id="SmFUIS7alfUtvk3t5x0e-18" value="" style="endArrow=block;html=1;rounded=0;endFill=1;strokeWidth=2;dashed=1;" parent="lANYIr80iCtnIKWCvtiR-1" source="lANYIr80iCtnIKWCvtiR-91" target="52D9Tapz6KT9bFypixHh-3" edge="1">
          <mxGeometry width="50" height="50" relative="1" as="geometry">
            <mxPoint x="680.12" y="730" as="sourcePoint" />
            <mxPoint x="630.12" y="790" as="targetPoint" />
          </mxGeometry>
        </mxCell>
        <mxCell id="SmFUIS7alfUtvk3t5x0e-19" value="" style="endArrow=block;html=1;rounded=0;endFill=1;strokeWidth=2;dashed=1;fillColor=#e51400;strokeColor=#0000FF;" parent="lANYIr80iCtnIKWCvtiR-1" source="52D9Tapz6KT9bFypixHh-3" target="52D9Tapz6KT9bFypixHh-1" edge="1">
          <mxGeometry width="50" height="50" relative="1" as="geometry">
            <mxPoint x="330.12" y="1000" as="sourcePoint" />
            <mxPoint x="470.12" y="1040" as="targetPoint" />
          </mxGeometry>
        </mxCell>
        <mxCell id="SmFUIS7alfUtvk3t5x0e-24" value="" style="endArrow=block;html=1;rounded=0;endFill=1;strokeWidth=2;dashed=1;fillColor=#e51400;strokeColor=#FF0000;" parent="lANYIr80iCtnIKWCvtiR-1" source="lANYIr80iCtnIKWCvtiR-19" target="52D9Tapz6KT9bFypixHh-3" edge="1">
          <mxGeometry width="50" height="50" relative="1" as="geometry">
            <mxPoint x="220" y="620" as="sourcePoint" />
            <mxPoint x="300" y="620" as="targetPoint" />
          </mxGeometry>
        </mxCell>
        <mxCell id="SmFUIS7alfUtvk3t5x0e-25" value="" style="endArrow=block;html=1;rounded=0;endFill=1;strokeWidth=2;dashed=1;fillColor=#e51400;strokeColor=#FF0000;" parent="lANYIr80iCtnIKWCvtiR-1" source="lANYIr80iCtnIKWCvtiR-19" target="lANYIr80iCtnIKWCvtiR-91" edge="1">
          <mxGeometry width="50" height="50" relative="1" as="geometry">
            <mxPoint x="230" y="670" as="sourcePoint" />
            <mxPoint x="600" y="640" as="targetPoint" />
          </mxGeometry>
        </mxCell>
        <mxCell id="a9gQA2mspXTse77qEvBo-0" value="" style="endArrow=block;html=1;rounded=0;endFill=1;strokeWidth=2;dashed=1;fillColor=#e51400;strokeColor=#FF0000;" parent="lANYIr80iCtnIKWCvtiR-1" source="lANYIr80iCtnIKWCvtiR-30" target="52D9Tapz6KT9bFypixHh-3" edge="1">
          <mxGeometry width="50" height="50" relative="1" as="geometry">
            <mxPoint x="210" y="650" as="sourcePoint" />
            <mxPoint x="290" y="650" as="targetPoint" />
          </mxGeometry>
        </mxCell>
        <mxCell id="5mwSjM_wGLtLWpJrezLT-0" value="" style="endArrow=block;html=1;rounded=0;endFill=1;strokeWidth=2;dashed=1;fillColor=#e51400;strokeColor=#FF0000;entryX=1;entryY=0.75;entryDx=0;entryDy=0;exitX=0;exitY=0.75;exitDx=0;exitDy=0;" edge="1" parent="lANYIr80iCtnIKWCvtiR-1" source="lANYIr80iCtnIKWCvtiR-30" target="lANYIr80iCtnIKWCvtiR-11">
          <mxGeometry width="50" height="50" relative="1" as="geometry">
            <mxPoint x="810" y="450" as="sourcePoint" />
            <mxPoint x="690" y="530" as="targetPoint" />
          </mxGeometry>
        </mxCell>
        <mxCell id="RxzDboZzdHICH2vyBsxk-6" value="REDIS" style="ellipse;whiteSpace=wrap;html=1;fillColor=#FF0000;strokeColor=none;fontColor=#FFFFFF;fontStyle=1;fontSize=10;" vertex="1" parent="lANYIr80iCtnIKWCvtiR-1">
          <mxGeometry x="565" y="415" width="40" height="20" as="geometry" />
        </mxCell>
        <mxCell id="RxzDboZzdHICH2vyBsxk-7" value="REDIS" style="ellipse;whiteSpace=wrap;html=1;fillColor=#FF0000;strokeColor=none;fontColor=#FFFFFF;fontStyle=1;fontSize=10;" vertex="1" parent="lANYIr80iCtnIKWCvtiR-1">
          <mxGeometry x="565" y="535" width="40" height="20" as="geometry" />
        </mxCell>
        <mxCell id="RxzDboZzdHICH2vyBsxk-8" value="MONGO" style="ellipse;whiteSpace=wrap;html=1;fillColor=#00FF00;strokeColor=none;fontColor=#000000;fontStyle=1;fontSize=10;spacing=2;" vertex="1" parent="lANYIr80iCtnIKWCvtiR-1">
          <mxGeometry x="635" y="415" width="40" height="20" as="geometry" />
        </mxCell>
        <mxCell id="RxzDboZzdHICH2vyBsxk-9" value="FILES" style="ellipse;whiteSpace=wrap;html=1;fillColor=#FF8000;strokeColor=none;fontColor=#000000;fontStyle=1;fontSize=10;" vertex="1" parent="lANYIr80iCtnIKWCvtiR-1">
          <mxGeometry x="600" y="775" width="40" height="20" as="geometry" />
        </mxCell>
        <mxCell id="RxzDboZzdHICH2vyBsxk-10" value="FILES" style="ellipse;whiteSpace=wrap;html=1;fillColor=#FF8000;strokeColor=none;fontColor=#000000;fontStyle=1;fontSize=10;" vertex="1" parent="lANYIr80iCtnIKWCvtiR-1">
          <mxGeometry x="635" y="535" width="40" height="20" as="geometry" />
        </mxCell>
      </root>
    </mxGraphModel>
  </diagram>
  <diagram name="POS with Preset" id="q8KP62ZuXQLA1-MhxRb5">
    <mxGraphModel dx="1238" dy="769" grid="1" gridSize="10" guides="1" tooltips="1" connect="1" arrows="1" fold="1" page="1" pageScale="1" pageWidth="827" pageHeight="1169" math="0" shadow="0">
      <root>
        <mxCell id="TZHT4pFUAIUM7xwHknJH-0" />
        <mxCell id="TZHT4pFUAIUM7xwHknJH-1" parent="TZHT4pFUAIUM7xwHknJH-0" />
        <mxCell id="TZHT4pFUAIUM7xwHknJH-2" value="&lt;span style=&quot;font-weight: normal;&quot;&gt;&lt;span&gt;Multi-channel Integration Layer&lt;/span&gt;&lt;/span&gt;" style="html=1;fontStyle=1;verticalAlign=top;fillColor=#d5e8d4;strokeColor=#82b366;strokeWidth=1;" vertex="1" parent="TZHT4pFUAIUM7xwHknJH-1">
          <mxGeometry x="240" y="560" width="600" height="320" as="geometry" />
        </mxCell>
        <mxCell id="TZHT4pFUAIUM7xwHknJH-3" value="«Service»&lt;br&gt;&lt;b&gt;Payment Notice&lt;/b&gt;" style="html=1;dropTarget=0;fillColor=#fff2cc;strokeColor=#d6b656;" vertex="1" parent="TZHT4pFUAIUM7xwHknJH-1">
          <mxGeometry x="279.88" y="600" width="120" height="80" as="geometry" />
        </mxCell>
        <mxCell id="TZHT4pFUAIUM7xwHknJH-4" value="&lt;b&gt;Client&lt;/b&gt;" style="html=1;dropTarget=0;fillColor=#e1d5e7;strokeColor=#9673a6;" vertex="1" parent="TZHT4pFUAIUM7xwHknJH-1">
          <mxGeometry x="80" y="600" width="120" height="80" as="geometry" />
        </mxCell>
        <mxCell id="TZHT4pFUAIUM7xwHknJH-5" value="" style="endArrow=block;html=1;rounded=0;endFill=1;strokeWidth=2;dashed=1;fillColor=#e51400;strokeColor=#FF0000;" edge="1" parent="TZHT4pFUAIUM7xwHknJH-1" source="TZHT4pFUAIUM7xwHknJH-4" target="TZHT4pFUAIUM7xwHknJH-3">
          <mxGeometry width="50" height="50" relative="1" as="geometry">
            <mxPoint x="-10" y="370" as="sourcePoint" />
            <mxPoint x="110" y="370" as="targetPoint" />
          </mxGeometry>
        </mxCell>
        <mxCell id="TZHT4pFUAIUM7xwHknJH-6" value="&lt;b&gt;Nodo&lt;/b&gt;" style="html=1;dropTarget=0;fillColor=#ffe6cc;strokeColor=#d79b00;" vertex="1" parent="TZHT4pFUAIUM7xwHknJH-1">
          <mxGeometry x="280" y="440" width="120" height="80" as="geometry" />
        </mxCell>
        <mxCell id="TZHT4pFUAIUM7xwHknJH-7" value="" style="endArrow=block;html=1;rounded=0;endFill=1;strokeWidth=2;dashed=1;startArrow=block;startFill=1;strokeColor=#0000FF;" edge="1" parent="TZHT4pFUAIUM7xwHknJH-1" source="TZHT4pFUAIUM7xwHknJH-3" target="TZHT4pFUAIUM7xwHknJH-6">
          <mxGeometry width="50" height="50" relative="1" as="geometry">
            <mxPoint x="430" y="370" as="sourcePoint" />
            <mxPoint x="470" y="400" as="targetPoint" />
          </mxGeometry>
        </mxCell>
        <mxCell id="TZHT4pFUAIUM7xwHknJH-8" value="&lt;b&gt;GEC&lt;/b&gt;" style="html=1;dropTarget=0;fillColor=#ffe6cc;strokeColor=#d79b00;" vertex="1" parent="TZHT4pFUAIUM7xwHknJH-1">
          <mxGeometry x="880" y="600" width="120" height="80" as="geometry" />
        </mxCell>
        <mxCell id="TZHT4pFUAIUM7xwHknJH-9" value="" style="endArrow=block;html=1;rounded=0;endFill=1;strokeWidth=2;dashed=1;startArrow=none;strokeColor=#0000FF;" edge="1" parent="TZHT4pFUAIUM7xwHknJH-1" source="TZHT4pFUAIUM7xwHknJH-10" target="TZHT4pFUAIUM7xwHknJH-8">
          <mxGeometry width="50" height="50" relative="1" as="geometry">
            <mxPoint x="470" y="650" as="sourcePoint" />
            <mxPoint x="530" y="650" as="targetPoint" />
          </mxGeometry>
        </mxCell>
        <mxCell id="TZHT4pFUAIUM7xwHknJH-10" value="«Service»&lt;br&gt;&lt;b&gt;Fee Calculator&lt;/b&gt;" style="html=1;dropTarget=0;fillColor=#fff2cc;strokeColor=#d6b656;" vertex="1" parent="TZHT4pFUAIUM7xwHknJH-1">
          <mxGeometry x="680" y="600" width="120" height="80" as="geometry" />
        </mxCell>
        <mxCell id="TZHT4pFUAIUM7xwHknJH-11" value="&lt;b&gt;Poynt Services&lt;/b&gt;" style="html=1;dropTarget=0;fillColor=#f5f5f5;fontColor=#333333;strokeColor=#666666;" vertex="1" parent="TZHT4pFUAIUM7xwHknJH-1">
          <mxGeometry x="880" y="760" width="120" height="80" as="geometry" />
        </mxCell>
        <mxCell id="TZHT4pFUAIUM7xwHknJH-12" value="«Service»&lt;br&gt;&lt;b&gt;Auth&lt;/b&gt;" style="html=1;dropTarget=0;fillColor=#fff2cc;strokeColor=#d6b656;" vertex="1" parent="TZHT4pFUAIUM7xwHknJH-1">
          <mxGeometry x="480.12" y="760" width="120" height="80" as="geometry" />
        </mxCell>
        <mxCell id="TZHT4pFUAIUM7xwHknJH-13" value="«Service»&lt;br&gt;&lt;b&gt;Acquirer Config&lt;/b&gt;" style="html=1;dropTarget=0;fillColor=#fff2cc;strokeColor=#d6b656;" vertex="1" parent="TZHT4pFUAIUM7xwHknJH-1">
          <mxGeometry x="480.12" y="600" width="120" height="80" as="geometry" />
        </mxCell>
        <mxCell id="TZHT4pFUAIUM7xwHknJH-14" value="" style="endArrow=block;html=1;rounded=0;endFill=1;startArrow=none;startFill=0;strokeWidth=2;dashed=1;" edge="1" parent="TZHT4pFUAIUM7xwHknJH-1" source="TZHT4pFUAIUM7xwHknJH-10" target="TZHT4pFUAIUM7xwHknJH-13">
          <mxGeometry width="50" height="50" relative="1" as="geometry">
            <mxPoint x="330.12" y="480" as="sourcePoint" />
            <mxPoint x="330.12" y="440" as="targetPoint" />
          </mxGeometry>
        </mxCell>
        <mxCell id="TZHT4pFUAIUM7xwHknJH-15" value="" style="endArrow=block;html=1;rounded=0;endFill=1;startArrow=none;startFill=0;strokeWidth=2;dashed=1;" edge="1" parent="TZHT4pFUAIUM7xwHknJH-1" source="TZHT4pFUAIUM7xwHknJH-3" target="TZHT4pFUAIUM7xwHknJH-13">
          <mxGeometry width="50" height="50" relative="1" as="geometry">
            <mxPoint x="440.0000000000001" y="640" as="sourcePoint" />
            <mxPoint x="340.12" y="450" as="targetPoint" />
          </mxGeometry>
        </mxCell>
        <mxCell id="TZHT4pFUAIUM7xwHknJH-16" value="" style="endArrow=block;html=1;rounded=0;endFill=1;strokeWidth=2;dashed=1;" edge="1" parent="TZHT4pFUAIUM7xwHknJH-1" source="TZHT4pFUAIUM7xwHknJH-3" target="TZHT4pFUAIUM7xwHknJH-12">
          <mxGeometry width="50" height="50" relative="1" as="geometry">
            <mxPoint x="390" y="630" as="sourcePoint" />
            <mxPoint x="450" y="630" as="targetPoint" />
          </mxGeometry>
        </mxCell>
        <mxCell id="TZHT4pFUAIUM7xwHknJH-17" value="«Service»&lt;br&gt;&lt;b&gt;Preset Operation&lt;/b&gt;" style="html=1;dropTarget=0;fillColor=#fff2cc;strokeColor=#d6b656;" vertex="1" parent="TZHT4pFUAIUM7xwHknJH-1">
          <mxGeometry x="280" y="760" width="120" height="80" as="geometry" />
        </mxCell>
        <mxCell id="TZHT4pFUAIUM7xwHknJH-18" value="" style="endArrow=block;html=1;rounded=0;endFill=1;strokeWidth=2;dashed=1;" edge="1" parent="TZHT4pFUAIUM7xwHknJH-1" source="TZHT4pFUAIUM7xwHknJH-17" target="TZHT4pFUAIUM7xwHknJH-12">
          <mxGeometry width="50" height="50" relative="1" as="geometry">
            <mxPoint x="440.12" y="800" as="sourcePoint" />
            <mxPoint x="500.12" y="770" as="targetPoint" />
          </mxGeometry>
        </mxCell>
        <mxCell id="TZHT4pFUAIUM7xwHknJH-19" value="" style="endArrow=block;html=1;rounded=0;endFill=1;strokeWidth=2;dashed=1;" edge="1" parent="TZHT4pFUAIUM7xwHknJH-1" source="TZHT4pFUAIUM7xwHknJH-10" target="TZHT4pFUAIUM7xwHknJH-12">
          <mxGeometry width="50" height="50" relative="1" as="geometry">
            <mxPoint x="680.12" y="730" as="sourcePoint" />
            <mxPoint x="630.12" y="790" as="targetPoint" />
          </mxGeometry>
        </mxCell>
        <mxCell id="TZHT4pFUAIUM7xwHknJH-20" value="" style="endArrow=block;html=1;rounded=0;endFill=1;strokeWidth=2;dashed=1;fillColor=#e51400;strokeColor=#0000FF;" edge="1" parent="TZHT4pFUAIUM7xwHknJH-1" source="TZHT4pFUAIUM7xwHknJH-12" target="TZHT4pFUAIUM7xwHknJH-11">
          <mxGeometry width="50" height="50" relative="1" as="geometry">
            <mxPoint x="330.12" y="1040" as="sourcePoint" />
            <mxPoint x="470.12" y="1080" as="targetPoint" />
          </mxGeometry>
        </mxCell>
        <mxCell id="TZHT4pFUAIUM7xwHknJH-21" value="" style="endArrow=block;html=1;rounded=0;endFill=1;strokeWidth=2;dashed=1;fillColor=#e51400;strokeColor=#FF0000;" edge="1" parent="TZHT4pFUAIUM7xwHknJH-1" source="TZHT4pFUAIUM7xwHknJH-4" target="TZHT4pFUAIUM7xwHknJH-17">
          <mxGeometry width="50" height="50" relative="1" as="geometry">
            <mxPoint x="210" y="650" as="sourcePoint" />
            <mxPoint x="290" y="650" as="targetPoint" />
          </mxGeometry>
        </mxCell>
        <mxCell id="TZHT4pFUAIUM7xwHknJH-22" value="" style="endArrow=block;html=1;rounded=0;endFill=1;strokeWidth=2;dashed=1;fillColor=#e51400;strokeColor=#FF0000;" edge="1" parent="TZHT4pFUAIUM7xwHknJH-1" source="TZHT4pFUAIUM7xwHknJH-4" target="TZHT4pFUAIUM7xwHknJH-12">
          <mxGeometry width="50" height="50" relative="1" as="geometry">
            <mxPoint x="220" y="660" as="sourcePoint" />
            <mxPoint x="300" y="660" as="targetPoint" />
          </mxGeometry>
        </mxCell>
        <mxCell id="TZHT4pFUAIUM7xwHknJH-23" value="" style="endArrow=block;html=1;rounded=0;endFill=1;strokeWidth=2;dashed=1;fillColor=#e51400;strokeColor=#FF0000;exitX=0.5;exitY=0;exitDx=0;exitDy=0;entryX=0.5;entryY=0;entryDx=0;entryDy=0;edgeStyle=orthogonalEdgeStyle;" edge="1" parent="TZHT4pFUAIUM7xwHknJH-1" source="TZHT4pFUAIUM7xwHknJH-4" target="TZHT4pFUAIUM7xwHknJH-10">
          <mxGeometry width="50" height="50" relative="1" as="geometry">
            <mxPoint x="230" y="670" as="sourcePoint" />
            <mxPoint x="600" y="640" as="targetPoint" />
            <Array as="points">
              <mxPoint x="140" y="400" />
              <mxPoint x="740" y="400" />
            </Array>
          </mxGeometry>
        </mxCell>
        <mxCell id="TZHT4pFUAIUM7xwHknJH-24" value="&lt;b&gt;Institution Portal&lt;/b&gt;" style="html=1;dropTarget=0;fillColor=#e1d5e7;strokeColor=#9673a6;" vertex="1" parent="TZHT4pFUAIUM7xwHknJH-1">
          <mxGeometry x="80" y="760" width="120" height="80" as="geometry" />
        </mxCell>
        <mxCell id="TZHT4pFUAIUM7xwHknJH-25" value="" style="endArrow=block;html=1;rounded=0;endFill=1;strokeWidth=2;dashed=1;fillColor=#e51400;strokeColor=#FF0000;" edge="1" parent="TZHT4pFUAIUM7xwHknJH-1" source="TZHT4pFUAIUM7xwHknJH-24" target="TZHT4pFUAIUM7xwHknJH-17">
          <mxGeometry width="50" height="50" relative="1" as="geometry">
            <mxPoint x="120" y="690" as="sourcePoint" />
            <mxPoint x="480" y="810" as="targetPoint" />
          </mxGeometry>
        </mxCell>
        <mxCell id="TZHT4pFUAIUM7xwHknJH-26" value="REDIS" style="rounded=0;whiteSpace=wrap;html=1;fontSize=8;strokeColor=none;strokeWidth=0;fillColor=#FF0000;fontColor=#FFFFFF;fontStyle=1" vertex="1" parent="TZHT4pFUAIUM7xwHknJH-1">
          <mxGeometry x="480.12" y="820" width="40" height="20" as="geometry" />
        </mxCell>
        <mxCell id="TZHT4pFUAIUM7xwHknJH-27" value="MONGO" style="rounded=0;whiteSpace=wrap;html=1;fontSize=8;strokeColor=none;strokeWidth=0;fillColor=#00FF00;fontColor=#000000;fontStyle=1" vertex="1" parent="TZHT4pFUAIUM7xwHknJH-1">
          <mxGeometry x="560.12" y="820" width="40" height="20" as="geometry" />
        </mxCell>
        <mxCell id="TZHT4pFUAIUM7xwHknJH-28" value="FILES" style="rounded=0;whiteSpace=wrap;html=1;fontSize=8;strokeColor=none;strokeWidth=0;fillColor=#FF8000;fontColor=#000000;fontStyle=1" vertex="1" parent="TZHT4pFUAIUM7xwHknJH-1">
          <mxGeometry x="520.12" y="660" width="40" height="20" as="geometry" />
        </mxCell>
        <mxCell id="TZHT4pFUAIUM7xwHknJH-29" value="MONGO" style="rounded=0;whiteSpace=wrap;html=1;fontSize=8;strokeColor=none;strokeWidth=0;fillColor=#00FF00;fontColor=#000000;fontStyle=1" vertex="1" parent="TZHT4pFUAIUM7xwHknJH-1">
          <mxGeometry x="359.88" y="660" width="40" height="20" as="geometry" />
        </mxCell>
        <mxCell id="TZHT4pFUAIUM7xwHknJH-30" value="MONGO" style="rounded=0;whiteSpace=wrap;html=1;fontSize=8;strokeColor=none;strokeWidth=0;fillColor=#00FF00;fontColor=#000000;fontStyle=1" vertex="1" parent="TZHT4pFUAIUM7xwHknJH-1">
          <mxGeometry x="360" y="820" width="40" height="20" as="geometry" />
        </mxCell>
        <mxCell id="TZHT4pFUAIUM7xwHknJH-31" value="REDIS" style="rounded=0;whiteSpace=wrap;html=1;fontSize=8;strokeColor=none;strokeWidth=0;fillColor=#FF0000;fontColor=#FFFFFF;fontStyle=1" vertex="1" parent="TZHT4pFUAIUM7xwHknJH-1">
          <mxGeometry x="279.88" y="660" width="40" height="20" as="geometry" />
        </mxCell>
        <mxCell id="TZHT4pFUAIUM7xwHknJH-32" value="FILES" style="rounded=0;whiteSpace=wrap;html=1;fontSize=8;strokeColor=none;strokeWidth=0;fillColor=#FF8000;fontColor=#000000;fontStyle=1" vertex="1" parent="TZHT4pFUAIUM7xwHknJH-1">
          <mxGeometry x="520.12" y="820" width="40" height="20" as="geometry" />
        </mxCell>
        <mxCell id="TZHT4pFUAIUM7xwHknJH-33" value="" style="endArrow=block;html=1;rounded=0;endFill=1;strokeWidth=2;dashed=1;fillColor=#e51400;strokeColor=#FF0000;" edge="1" parent="TZHT4pFUAIUM7xwHknJH-1" source="TZHT4pFUAIUM7xwHknJH-6" target="TZHT4pFUAIUM7xwHknJH-12">
          <mxGeometry width="50" height="50" relative="1" as="geometry">
            <mxPoint x="210" y="650" as="sourcePoint" />
            <mxPoint x="290" y="650" as="targetPoint" />
          </mxGeometry>
        </mxCell>
        <mxCell id="TZHT4pFUAIUM7xwHknJH-34" value="" style="endArrow=block;html=1;rounded=0;endFill=1;strokeWidth=2;dashed=1;fillColor=#e51400;strokeColor=#FF0000;exitX=0.5;exitY=1;exitDx=0;exitDy=0;entryX=0.5;entryY=1;entryDx=0;entryDy=0;edgeStyle=orthogonalEdgeStyle;" edge="1" parent="TZHT4pFUAIUM7xwHknJH-1" source="TZHT4pFUAIUM7xwHknJH-24" target="TZHT4pFUAIUM7xwHknJH-32">
          <mxGeometry width="50" height="50" relative="1" as="geometry">
            <mxPoint x="220" y="660" as="sourcePoint" />
            <mxPoint x="290" y="1020" as="targetPoint" />
            <Array as="points">
              <mxPoint x="140" y="920" />
              <mxPoint x="540" y="920" />
            </Array>
          </mxGeometry>
        </mxCell>
      </root>
    </mxGraphModel>
  </diagram>
</mxfile>
